<svg xmlns="http://www.w3.org/2000/svg"  >

	<symbol viewBox="0 0 512 512" id='icon_tag'>
		<path d="M0 252.118V48C0 21.49 21.49 0 48 0h204.118a48 48 0 0 1 33.941 14.059l211.882 211.882c18.745 18.745 18.745 49.137 0 67.882L293.823 497.941c-18.745 18.745-49.137 18.745-67.882 0L14.059 286.059A48 48 0 0 1 0 252.118zM112 64c-26.51 0-48 21.49-48 48s21.49 48 48 48 48-21.49 48-48-21.49-48-48-48z"/>
  </symbol>

	<symbol viewBox="0 0 448 512" id='icon_instagram'>
		<path d="M224.1 141c-63.6 0-114.9 51.3-114.9 114.9s51.3 114.9 114.9 114.9S339 319.5 339 255.9 287.7 141 224.1 141zm0 189.6c-41.1 0-74.7-33.5-74.7-74.7s33.5-74.7 74.7-74.7 74.7 33.5 74.7 74.7-33.6 74.7-74.7 74.7zm146.4-194.3c0 14.9-12 26.8-26.8 26.8-14.9 0-26.8-12-26.8-26.8s12-26.8 26.8-26.8 26.8 12 26.8 26.8zm76.1 27.2c-1.7-35.9-9.9-67.7-36.2-93.9-26.2-26.2-58-34.4-93.9-36.2-37-2.1-147.9-2.1-184.9 0-35.8 1.7-67.6 9.9-93.9 36.1s-34.4 58-36.2 93.9c-2.1 37-2.1 147.9 0 184.9 1.7 35.9 9.9 67.7 36.2 93.9s58 34.4 93.9 36.2c37 2.1 147.9 2.1 184.9 0 35.9-1.7 67.7-9.9 93.9-36.2 26.2-26.2 34.4-58 36.2-93.9 2.1-37 2.1-147.8 0-184.8zM398.8 388c-7.8 19.6-22.9 34.7-42.6 42.6-29.5 11.7-99.5 9-132.1 9s-102.7 2.6-132.1-9c-19.6-7.8-34.7-22.9-42.6-42.6-11.7-29.5-9-99.5-9-132.1s-2.6-102.7 9-132.1c7.8-19.6 22.9-34.7 42.6-42.6 29.5-11.7 99.5-9 132.1-9s102.7-2.6 132.1 9c19.6 7.8 34.7 22.9 42.6 42.6 11.7 29.5 9 99.5 9 132.1s2.7 102.7-9 132.1z"/>
  </symbol>

	<symbol viewBox="0 0 448 512" id='icon_telegram'>
		<path d="M446.7 98.6l-67.6 318.8c-5.1 22.5-18.4 28.1-37.3 17.5l-103-75.9-49.7 47.8c-5.5 5.5-10.1 10.1-20.7 10.1l7.4-104.9 190.9-172.5c8.3-7.4-1.8-11.5-12.9-4.1L117.8 284 16.2 252.2c-22.1-6.9-22.5-22.1 4.6-32.7L418.2 66.4c18.4-6.9 34.5 4.1 28.5 32.2z"/>
  </symbol>

	<symbol viewBox="0 0 640 512" id='icon_box'>
		<path d="M425.7 256c-16.9 0-32.8-9-41.4-23.4L320 126l-64.2 106.6c-8.7 14.5-24.6 23.5-41.5 23.5-4.5 0-9-.6-13.3-1.9L64 215v178c0 14.7 10 27.5 24.2 31l216.2 54.1c10.2 2.5 20.9 2.5 31 0L551.8 424c14.2-3.6 24.2-16.4 24.2-31V215l-137 39.1c-4.3 1.3-8.8 1.9-13.3 1.9zm212.6-112.2L586.8 41c-3.1-6.2-9.8-9.8-16.7-8.9L320 64l91.7 152.1c3.8 6.3 11.4 9.3 18.5 7.3l197.9-56.5c9.9-2.9 14.7-13.9 10.2-23.1zM53.2 41L1.7 143.8c-4.6 9.2.3 20.2 10.1 23l197.9 56.5c7.1 2 14.7-1 18.5-7.3L320 64 69.8 32.1c-6.9-.8-13.5 2.7-16.6 8.9z"/>
	</symbol>

	<symbol viewBox="0 0 512 512" id='icon_puffs'>
		<g transform="translate(0, 512) scale(0.1,-0.1)">
			<path d="M2921 5104 c-100 -17 -264 -70 -353 -115 -93 -47 -214 -128 -296 -198 l-73 -63 -49 21 c-153 66 -388 81 -563 37 -322 -82 -571 -331 -653 -653 -34 -135 -34 -311 0 -446 29 -113 83 -229 148 -315 l47 -62 -564 0 -565 0 0 -750 0 -750 565 0 564 0 -47 -62 c-197 -261 -230 -643 -81 -942 115 -233 332 -407 586 -472 170 -43 394 -30 550 32 l63 25 72 -62 c82 -70 203 -151 296 -198 284 -143 670 -172 992 -75 548 165 950 700 950 1265 l0 105 68 49 c104 76 241 219 315 331 157 236 227 469 227 754 0 285 -70 518 -227 754 -73 110 -219 263 -319 335 l-61 44 -6 146 c-4 113 -11 169 -32 250 -88 339 -279 614 -559 802 -167 113 -343 184 -526 214 -117 19 -354 18 -469 -1z m407 -305 c435 -63 806 -446 867 -896 4 -29 3 -53 -2 -53 -5 0 -53 12 -108 27 -93 24 -118 27 -362 31 l-263 4 0 -151 0 -151 133 0 c353 0 541 -46 748 -182 211 -139 359 -340 436 -593 25 -84 27 -102 27 -275 0 -173 -2 -191 -27 -275 -76 -248 -225 -453 -430 -589 -208 -138 -400 -186 -754 -186 l-133 0 0 -151 0 -151 263 4 c244 4 269 7 362 31 55 15 103 27 108 27 24 0 -26 -214 -77 -331 -179 -412 -599 -663 -1049 -627 -493 39 -913 464 -944 955 l-6 93 -155 0 -155 0 6 -112 c9 -176 77 -406 162 -552 14 -25 22 -46 18 -49 -26 -16 -106 -28 -188 -28 -167 0 -314 67 -433 197 -104 113 -152 239 -152 401 0 259 171 484 430 565 71 22 89 23 360 23 276 0 286 -1 320 -22 39 -24 70 -70 70 -102 0 -20 4 -21 156 -21 l157 0 -5 63 c-11 138 -115 280 -253 348 l-70 34 -1042 3 -1043 2 0 450 0 450 1043 2 1042 3 70 34 c138 68 242 210 253 348 l5 63 -157 0 c-152 0 -156 -1 -156 -21 0 -32 -31 -78 -70 -102 -34 -21 -44 -22 -320 -22 -271 0 -289 1 -360 23 -141 44 -260 134 -340 255 -121 185 -121 449 0 634 114 173 296 274 495 274 82 0 162 -12 188 -28 4 -3 -4 -24 -18 -49 -85 -146 -153 -376 -162 -551 l-6 -113 155 0 155 0 6 93 c22 341 237 669 550 837 205 110 411 144 655 109z"/>
		</g>
	</symbol>

	<symbol viewBox="0 0 384 512" id='icon_hryvnia'>
		<g>
			<path d="M342.012,237.535H213.264c12.956-9.977,26.38-19.162,37.94-28.02c2.867-2.19,5.657-4.442,8.411-6.712h82.396
				c11.703,0,21.185-9.483,21.185-21.184s-9.481-21.184-21.185-21.184H298.78c5.894-9.026,10.923-18.708,14.623-29.392
				c9.528-27.547,4.776-59.267-11.159-83.374C262.057-13.134,179.492-8.639,121.998,21.565c-24.192,12.711-2.778,49.281,21.385,36.587
				c28.538-14.992,60.222-21.76,91.431-11.499c21.35,7.019,39.082,26.4,40.932,49.184c2.087,25.827-13.554,47.487-31.599,64.61H81.749
				c-11.7,0-21.185,9.484-21.185,21.184c0,11.701,9.484,21.184,21.185,21.184h107.966c-9.859,7.282-19.544,14.78-28.611,23.1
				c-3.969,3.652-7.693,7.548-11.195,11.632h-68.16c-11.7,0-21.185,9.481-21.185,21.185c0,11.697,9.484,21.185,21.185,21.185h43.447
				c-13.767,38.236-9.431,81.645,21.55,113.604c42.853,44.213,116.362,33.372,166.114,9.132c24.564-11.969,3.073-48.498-21.386-36.588
				c-38.515,18.773-109.106,28.839-127.392-22.721c-8.79-24.789-4.176-45.482,7.19-63.422h170.738
				c11.703,0,21.185-9.487,21.185-21.185C363.196,247.034,353.715,237.535,342.012,237.535z"/>
		</g>
	</symbol>
	
</svg>
